# xmcd
#
# Track frame offsets:
#	180
#	21165
#	42221
#	60071
#	87370
#	108444
#	129427
#	147422
#
# Disc length: 2333 seconds
#
# Revision: 1
# Processed by: cddbd v1.5.1PL2 Copyright (c) Steve Scherf et al.
# Submitted via: audiograbber 1.83.01
#
DISCID=61091b08
DTITLE=Various Artist - SC7732
DYEAR=1900
DGENRE=Karaoke
TTITLE0=Celine Dion and Clive Griffin - When I Fall In Love
TTITLE1=Diana Ross and Lionel Richie - Endless Love
TTITLE2=Linda Ronstadt and James Ingram - Somewhere Out There
TTITLE3=Peaches and Herb - Reunited
TTITLE4=Celine Dion and Clive Griffin - When I Fall In Love (vocals)
TTITLE5=Diana Ross and Lionel Richie - Endless Love (vocals)
TTITLE6=Linda Ronstadt and James Ingram - Somewhere Out There (vocals)
TTITLE7=Peaches and Herb - Reunited (vocals)
EXTD=
EXTT0=
EXTT1=
EXTT2=
EXTT3=
EXTT4=
EXTT5=
EXTT6=
EXTT7=
PLAYORDER=
